<?xml version="1.0" standalone="no"?>
<!DOCTYPE svg PUBLIC "-//W3C//DTD SVG 20010904//EN"
 "http://www.w3.org/TR/2001/REC-SVG-20010904/DTD/svg10.dtd">
<svg version="1.0" xmlns="http://www.w3.org/2000/svg"
 width="500.000000pt" height="500.000000pt" viewBox="0 0 500.000000 500.000000"
 preserveAspectRatio="xMidYMid meet">

<g transform="translate(0.000000,500.000000) scale(0.100000,-0.100000)"
fill="#000000" stroke="none">
<path d="M1750 3320 c0 -5 15 -10 33 -10 38 0 90 -30 109 -62 10 -17 14 -103
18 -333 l5 -310 68 -3 67 -3 0 298 c0 264 2 302 18 333 22 44 75 80 118 80 19
0 34 5 34 10 0 6 -85 10 -235 10 -150 0 -235 -4 -235 -10z"/>
<path d="M2703 2932 c-102 -36 -168 -100 -210 -201 -12 -31 -23 -73 -23 -94
l0 -38 56 3 56 3 4 55 c12 151 153 252 308 220 105 -22 186 -102 186 -183 0
-18 5 -27 16 -27 15 0 16 11 10 92 -3 50 -6 108 -6 128 l0 38 -62 6 c-174 18
-282 17 -335 -2z"/>
<path d="M1188 2554 c-5 -4 -8 -27 -8 -51 0 -41 1 -43 30 -43 17 0 30 5 30 10
0 6 -9 10 -19 10 -16 0 -20 8 -23 41 -2 22 -6 37 -10 33z"/>
<path d="M1357 2553 c-11 -10 -8 -93 3 -93 6 0 10 23 10 50 0 51 -1 55 -13 43z"/>
<path d="M1491 2550 c0 -8 6 -24 14 -34 8 -11 15 -29 15 -40 1 -14 5 -10 14
14 30 79 29 77 9 52 l-19 -24 -17 24 c-11 15 -16 18 -16 8z"/>
<path d="M1692 2523 c-28 -53 -28 -67 -2 -51 16 10 24 10 41 0 12 -7 22 -12
24 -10 1 2 -7 26 -19 53 l-23 50 -21 -42z m28 -13 c0 -5 -4 -10 -10 -10 -5 0
-10 5 -10 10 0 6 5 10 10 10 6 0 10 -4 10 -10z"/>
<path d="M1872 2510 c0 -47 2 -50 7 -20 l6 35 23 -32 c13 -18 28 -33 33 -33
12 0 12 87 -1 95 -6 4 -10 -7 -10 -27 l-1 -33 -29 35 -29 35 1 -55z"/>
<path d="M2079 2516 c-11 -26 -17 -51 -13 -54 3 -4 9 -1 11 6 5 14 53 17 53 2
0 -5 4 -10 10 -10 10 0 -16 77 -31 94 -5 6 -18 -11 -30 -38z m31 -1 c0 -8 -4
-15 -10 -15 -5 0 -7 7 -4 15 4 8 8 15 10 15 2 0 4 -7 4 -15z"/>
<path d="M2278 2549 c-12 -6 -18 -22 -18 -44 0 -35 15 -45 63 -43 23 2 24 48
1 48 -10 0 -14 -6 -10 -15 3 -10 -1 -15 -13 -15 -24 0 -32 19 -19 43 7 14 16
17 34 13 26 -7 33 8 8 18 -21 8 -26 7 -46 -5z"/>
<path d="M2467 2553 c-4 -3 -7 -26 -7 -50 0 -41 1 -43 30 -43 17 0 30 5 30 10
0 6 -9 10 -20 10 -11 0 -20 5 -20 10 0 6 9 10 20 10 11 0 20 5 20 10 0 6 -9
10 -20 10 -11 0 -20 5 -20 10 0 6 9 10 20 10 11 0 20 5 20 10 0 11 -43 14 -53
3z"/>
<path d="M2784 2545 c-19 -15 -18 -16 9 -38 15 -13 24 -26 21 -30 -4 -4 -13
-2 -21 5 -16 13 -31 2 -16 -13 16 -16 57 -7 61 13 2 11 -6 22 -22 29 -34 16
-33 33 1 24 23 -5 25 -4 14 9 -17 20 -22 20 -47 1z"/>
<path d="M3018 2554 c-5 -4 -8 -22 -8 -41 0 -26 -4 -33 -20 -33 -16 0 -20 7
-20 35 0 19 -4 35 -10 35 -14 0 -12 -64 2 -78 16 -16 57 -15 64 2 8 20 0 89
-8 80z"/>
<path d="M3157 2554 c-11 -11 -8 -94 3 -94 6 0 10 7 10 15 0 8 11 17 24 21 26
6 38 24 27 42 -8 14 -54 25 -64 16z m46 -29 c1 -5 -6 -11 -15 -13 -11 -2 -18
3 -18 13 0 17 30 18 33 0z"/>
<path d="M3342 2513 c3 -41 6 -48 26 -51 13 -2 30 2 38 8 16 14 20 95 4 85 -5
-3 -10 -22 -10 -41 0 -27 -4 -34 -20 -34 -16 0 -20 7 -20 34 0 19 -5 38 -11
41 -7 5 -9 -9 -7 -42z"/>
<path d="M3540 2513 c0 -29 5 -53 10 -53 6 0 10 12 10 28 l1 27 22 -27 c13
-16 26 -28 30 -28 4 0 7 20 7 45 0 25 -4 45 -10 45 -5 0 -10 -12 -10 -27 l0
-27 -30 34 -29 35 -1 -52z"/>
<path d="M1917 2383 c-4 -3 -7 -99 -7 -212 0 -189 -2 -209 -20 -239 -21 -35
-72 -62 -115 -62 -48 0 -25 -18 33 -25 88 -11 255 -68 382 -132 l114 -58 13
-63 c40 -205 203 -335 438 -349 167 -10 298 34 408 136 51 47 74 60 127 75
103 27 306 134 289 151 -4 3 -46 -6 -95 -20 -49 -13 -115 -29 -147 -33 l-59
-9 7 26 c14 57 17 179 6 233 -17 80 -71 185 -127 247 -43 48 -256 225 -374
310 -42 30 -46 31 -147 31 -78 0 -104 -3 -101 -12 3 -7 103 -91 224 -186 270
-213 296 -239 342 -331 42 -84 52 -169 33 -257 -12 -52 -14 -54 -46 -54 -121
0 -735 170 -735 204 0 30 34 126 66 185 19 35 33 66 30 69 -18 17 -107 -113
-126 -185 -7 -26 -16 -51 -20 -56 -8 -9 -168 44 -205 69 -50 33 -55 62 -55
319 l0 235 -63 0 c-35 0 -67 -3 -70 -7z m541 -797 c167 -83 345 -140 517 -163
l60 -9 -45 -29 c-134 -86 -330 -87 -463 -3 -56 36 -109 95 -135 152 -21 45
-35 96 -27 96 3 0 45 -20 93 -44z"/>
</g>
</svg>
